PathFileType	4	(X/Y/Z)	D:\Share\Shared_Data\Ergonomics\Sit To Stand Pertubation\S0\Free STS.trc
DataRate	CameraRate	NumFrames	NumMarkers	Units	OrigDataRate	OrigDataStartFrame	OrigNumFrames	
100	100	19	18	m	100	2254	231
Frame#	Time	R_Toe			R_ASIS			R_Pelvis			V_Sacral			L_Pelvis			L_ASIS			Clavical			R_Acromium			L_Acromium			Sternum			Torso			R_Thigh_Med			R_Thigh_Lat			R_Thigh			R_Shank_Med			R_Shank_Lat			R_Shank			R_Heel			
		X1	Y1	Z1	X2	Y2	Z2	X3	Y3	Z3	X4	Y4	Z4	X5	Y5	Z5	X6	Y6	Z6	X7	Y7	Z7	X8	Y8	Z8	X9	Y9	Z9	X10	Y10	Z10	X11	Y11	Z11	X12	Y12	Z12	X13	Y13	Z13	X14	Y14	Z14	X15	Y15	Z15	X16	Y16	Z16	X17	Y17	Z17	X18	Y18	Z18	

2254	8.96	0.37736102	0.050082378	0.14501938	0.02310231	0.74196667	0.15840309	-0.099199364	0.76479962	0.20594867	-0.2261676	0.76496179	-0.02242824	-0.084604523	0.7519649	-0.20575917	0.037429874	0.7279104	-0.15882333	0.24465488	1.0347521	-0.009489316	0.200785	1.1276774	0.13031271	0.190871	1.1312457	-0.1546058	0.22808081	0.938255	-0.026387539	0.22833536	0.9915415	-0.13096007	0.31127328	0.48679962	0.084134064	0.29337814	0.50507617	0.21757457	0.23319077	0.6443396	0.13263509	0.25519815	0.10194652	0.10677708	0.19586876	0.088725342	0.19425427	0.25278366	0.30749411	0.22205244	0.15502539	0.04507309	0.1470677
2255	8.97	0.37744763	0.050056183	0.1449953	0.026888138	0.74296075	0.15819528	-0.094931564	0.76765198	0.20587767	-0.22201527	0.76923688	-0.022549891	-0.080503532	0.75406805	-0.20584401	0.041001713	0.7281593	-0.15879474	0.25323969	1.0317614	-0.0092555246	0.21025969	1.1254818	0.13005843	0.20057103	1.1289385	-0.15425786	0.23557568	0.93563477	-0.026494734	0.23649835	0.98884332	-0.13070435	0.31206863	0.48675064	0.084071571	0.29420041	0.50494962	0.21757164	0.23477798	0.64463159	0.13281902	0.25536165	0.10178773	0.10676543	0.19603217	0.088629936	0.19426653	0.25336063	0.30734528	0.22202237	0.1550955	0.044988178	0.14711415
2256	8.98	0.37750928	0.050018478	0.14495242	0.030802896	0.74402887	0.15794136	-0.090524551	0.77065625	0.20575339	-0.21771999	0.77361212	-0.02270138	-0.076291016	0.75622076	-0.20595363	0.04463652	0.72847668	-0.15877835	0.26177209	1.0288556	-0.0089781837	0.21961441	1.123368	0.1297966	0.21017322	1.1267078	-0.15389241	0.24302011	0.933138	-0.026620926	0.24462073	0.98625055	-0.13038376	0.31288757	0.48666544	0.08393531	0.29510956	0.50483704	0.21749457	0.23646219	0.64486981	0.13288834	0.25547903	0.10161212	0.1067551	0.19618828	0.088541542	0.19428671	0.25396713	0.30720923	0.22196042	0.15514594	0.044906277	0.14717598
2257	8.99	0.3775498	0.049968483	0.14489	0.034820713	0.74517194	0.15764069	-0.085987785	0.77378125	0.20557625	-0.21329652	0.77806555	-0.022880665	-0.071978218	0.75841663	-0.20608458	0.048334877	0.72886841	-0.15877501	0.27020386	1.0260658	-0.0086741152	0.22880777	1.1213546	0.12952414	0.21965143	1.1245887	-0.15351834	0.25038684	0.93077832	-0.026754322	0.25266615	0.98378851	-0.13000458	0.31373868	0.4865289	0.083730537	0.29613318	0.50473648	0.21734302	0.2382693	0.6450545	0.13282005	0.25554326	0.10141465	0.10674025	0.1963385	0.088462151	0.19430721	0.25461165	0.3070827	0.22186501	0.15517899	0.044828869	0.14724707
2258	9	0.3775751	0.049905613	0.1448075	0.038916119	0.746388	0.15730013	-0.081336037	0.77699133	0.20535075	-0.20876328	0.78257227	-0.023082623	-0.067576828	0.76065485	-0.20623038	0.052098942	0.72934106	-0.15878419	0.27848303	1.0234274	-0.0083613491	0.23779721	1.1194623	0.12923816	0.22897353	1.1226132	-0.15314339	0.25764996	0.9285719	-0.026881382	0.26059613	0.98148444	-0.12957816	0.3146311	0.48632993	0.083464561	0.29728473	0.50464194	0.21712032	0.24022203	0.64519354	0.13260025	0.25555182	0.10119225	0.10671415	0.19648466	0.088394028	0.1943197	0.25530177	0.30696243	0.22173317	0.15519817	0.044757504	0.14731956
2259	9.01	0.3775914	0.049829868	0.14470528	0.043068214	0.74767017	0.15693095	-0.076590561	0.78024976	0.20508455	-0.20414201	0.78710303	-0.02329952	-0.063099167	0.76293756	-0.20638232	0.055929779	0.72990088	-0.15880487	0.28655902	1.0209771	-0.0080561876	0.24654193	1.1177159	0.128937	0.23810056	1.1208085	-0.15277438	0.26478308	0.92654028	-0.026992472	0.26837164	0.97936749	-0.12911829	0.31557422	0.4860643	0.083146591	0.29856436	0.50454544	0.21683408	0.24233289	0.64529791	0.13222758	0.25550989	0.10094626	0.10667061	0.19662834	0.08833931	0.19431647	0.25604169	0.30684561	0.22156219	0.15520741	0.044693859	0.14738474
2260	9.02	0.37760397	0.049742184	0.14458565	0.047259567	0.74900763	0.15654573	-0.071779106	0.78352148	0.2047869	-0.19945796	0.79162512	-0.023522974	-0.058559189	0.76526807	-0.20653107	0.059824215	0.73055402	-0.15883414	0.29438806	1.0187512	-0.0077720318	0.25500735	1.1161465	0.12862088	0.24698969	1.1191991	-0.15241866	0.27175858	0.92471118	-0.027084526	0.27595358	0.97746802	-0.12863821	0.3165773	0.48573615	0.082787682	0.29996832	0.50444174	0.21649586	0.2445988	0.64537781	0.13171643	0.25543469	0.10068566	0.10660532	0.19677007	0.088299484	0.19429193	0.25682919	0.30673053	0.22135179	0.15521034	0.044639488	0.14743457
2261	9.03	0.37761658	0.049644855	0.14445337	0.051471436	0.75039001	0.15615742	-0.066935089	0.78677454	0.2044678	-0.19473932	0.79610583	-0.023747284	-0.053973099	0.76764905	-0.20666866	0.063773609	0.73130872	-0.1588651	0.30193765	1.0167842	-0.007519381	0.26316855	1.1147893	0.1282917	0.25559875	1.1178087	-0.15208566	0.27854816	0.92311566	-0.027159403	0.28330331	0.97581622	-0.12814996	0.31765002	0.48535764	0.082400795	0.30149197	0.50432974	0.21612054	0.24700284	0.64544116	0.13109766	0.25535715	0.10042811	0.10651665	0.19690903	0.088274971	0.19424428	0.25765454	0.306617	0.22110643	0.15521019	0.044595596	0.14746367
2262	9.04	0.37763144	0.049541573	0.14431534	0.055681664	0.75181207	0.15577937	-0.06209565	0.7899826	0.20413725	-0.19001566	0.80051587	-0.023972017	-0.049359413	0.77008063	-0.20679053	0.067765182	0.73217493	-0.15888806	0.30918771	1.0151086	-0.0073065858	0.27100946	1.1136816	0.12795176	0.26389081	1.1166613	-0.15178697	0.28512576	0.92178522	-0.02722123	0.29038672	0.97444012	-0.1276657	0.3188028	0.48494751	0.082000305	0.3031243	0.50420905	0.21572612	0.24952147	0.64549591	0.13041695	0.25531221	0.1001936	0.10640594	0.19704337	0.088264885	0.19417583	0.25850092	0.3065061	0.22083647	0.15520949	0.044562893	0.14747017
2263	9.05	0.37764944	0.049437012	0.14417915	0.059867329	0.7532749	0.15542485	-0.057298687	0.79312695	0.20380496	-0.18531509	0.80483209	-0.024201864	-0.044738365	0.77255939	-0.20689635	0.071784164	0.73316339	-0.15889406	0.31612961	1.0137533	-0.0071410079	0.27852042	1.1128564	0.12760262	0.27183661	1.1157802	-0.15153581	0.29147086	0.92074927	-0.027275412	0.2971788	0.97336334	-0.12720044	0.3200459	0.48452814	0.081601021	0.30484167	0.50407559	0.21533331	0.25213158	0.64555035	0.12973009	0.2553221	0.099994308	0.10627734	0.19717116	0.088267006	0.19409189	0.25934836	0.30640063	0.2205571	0.15520995	0.044541443	0.14745554
2264	9.06	0.37767114	0.049336075	0.14405161	0.064008392	0.75478442	0.15510629	-0.052579739	0.79619751	0.20348026	-0.18066145	0.80903955	-0.024443756	-0.040130417	0.77507953	-0.20698988	0.075816063	0.73428284	-0.15887796	0.32276462	1.0127454	-0.0070297031	0.28569617	1.112339	0.12724545	0.27941766	1.1151863	-0.15134499	0.29757065	0.92003186	-0.027328348	0.30366754	0.97260431	-0.12677294	0.32138373	0.48412012	0.081216789	0.30661124	0.50392227	0.2149628	0.25481505	0.64561365	0.12909576	0.25538998	0.099831505	0.10613699	0.19729082	0.088278297	0.1939987	0.26017963	0.30630371	0.22028435	0.1552124	0.04453051	0.14742287
2265	9.07	0.37769662	0.049243187	0.14393796	0.068089401	0.75634918	0.15483496	-0.047968735	0.79919434	0.20317213	-0.17607237	0.81313306	-0.024703611	-0.035554138	0.77763361	-0.20707753	0.079848824	0.7355387	-0.15884033	0.32910089	1.0121078	-0.0069785957	0.29253671	1.1121492	0.12688216	0.28662659	1.1148993	-0.15122444	0.30341986	0.91965137	-0.027386669	0.30985242	0.97217725	-0.12640363	0.32281055	0.48373792	0.08085881	0.30840012	0.50374152	0.2146311	0.25756052	0.64569415	0.12856689	0.25550658	0.099700363	0.10599149	0.19740108	0.088295578	0.19390175	0.26098434	0.30621674	0.22003078	0.15521693	0.044528553	0.14737543
2266	9.08	0.37772589	0.049161495	0.14384149	0.072100464	0.75797931	0.15461945	-0.043486759	0.80212585	0.20288861	-0.17155743	0.81711896	-0.024984512	-0.031023939	0.78021503	-0.20716695	0.083873337	0.7369325	-0.15878716	0.33514935	1.0118577	-0.0069905095	0.29904834	1.1123004	0.12651594	0.29346506	1.1149359	-0.15117909	0.30902002	0.91962085	-0.02745628	0.3157399	0.97209308	-0.12611081	0.32431232	0.4833884	0.080534058	0.31018097	0.50352783	0.21434743	0.26036191	0.6457984	0.12818234	0.25565842	0.099594337	0.10584632	0.19750098	0.08831604	0.19380476	0.26176093	0.30613834	0.21980301	0.15522311	0.044533424	0.14731592
2267	9.09	0.37775848	0.049092205	0.14376315	0.076038055	0.75968542	0.15446378	-0.039143837	0.80500757	0.20263622	-0.16711763	0.82101379	-0.025286348	-0.026548805	0.78282123	-0.20726535	0.087882942	0.73846252	-0.15872588	0.34092139	1.0120051	-0.0070639071	0.30524158	1.1128008	0.12615054	0.29994061	1.1153114	-0.15120834	0.31437769	0.91994904	-0.027541574	0.32134067	0.97236121	-0.12590702	0.32587061	0.48307129	0.080244659	0.31193445	0.50327869	0.21411182	0.26321524	0.64592987	0.12796059	0.25583177	0.099506721	0.1057051	0.19759039	0.088337585	0.19370987	0.26251511	0.30606439	0.21960176	0.15523048	0.044542576	0.14724632
2268	9.1	0.3777934	0.049034561	0.14370186	0.079903717	0.76147668	0.15436638	-0.034938557	0.80785992	0.2024192	-0.16274603	0.82484332	-0.025606096	-0.022132116	0.78545587	-0.20737854	0.091872719	0.74012524	-0.15866159	0.34642868	1.0125542	-0.0071934204	0.31112823	1.1136531	0.12578944	0.3060643	1.1160377	-0.15130678	0.31950171	0.92064178	-0.027645002	0.32667053	0.97298987	-0.12579745	0.32746448	0.4827804	0.079988457	0.31365045	0.50299496	0.21391542	0.26611588	0.64608905	0.12789731	0.25601447	0.099431252	0.10556933	0.19767024	0.088359245	0.19361797	0.26325674	0.30598959	0.21942348	0.15523862	0.044553345	0.14716806
2269	9.11	0.37782962	0.048986595	0.14365482	0.083702072	0.76335968	0.15432054	-0.030858932	0.81070691	0.20223875	-0.15842972	0.82863959	-0.025938608	-0.017772209	0.78812903	-0.20750969	0.095838753	0.74191638	-0.15859587	0.35168393	1.0135049	-0.0073715725	0.31672049	1.114855	0.12543556	0.31184915	1.1171237	-0.15146564	0.32440121	0.9217019	-0.02776746	0.33174902	0.97398627	-0.12578054	0.32907156	0.48250476	0.079759491	0.31532733	0.50268192	0.21374281	0.26905505	0.64627234	0.12796768	0.25619693	0.099362732	0.10543898	0.19774287	0.088381615	0.19352974	0.26399591	0.3059093	0.21926172	0.15524742	0.04456356	0.14708284
2270	9.12	0.37786575	0.048945961	0.14361804	0.087441437	0.76533923	0.15431488	-0.026884277	0.81357483	0.20209235	-0.15415295	0.83243793	-0.026277552	-0.013463408	0.79085651	-0.20765851	0.099777885	0.74383142	-0.15852859	0.35670053	1.0148535	-0.0075905304	0.3220318	1.116403	0.12509112	0.31730948	1.1185728	-0.15167415	0.32908698	0.92312982	-0.027909039	0.33659549	0.97535553	-0.1258495	0.33066876	0.48223212	0.079548615	0.31696848	0.50234967	0.21357639	0.27201709	0.64647223	0.12813206	0.25637183	0.099297287	0.10531321	0.19781259	0.088406837	0.19344609	0.26473987	0.30582104	0.2191086	0.15525702	0.044572514	0.14699402
2271	9.13	0.37790036	0.048910564	0.14358691	0.091133759	0.76742053	0.15433417	-0.022988272	0.81649023	0.20197386	-0.14990092	0.83627307	-0.026616085	-0.0091976976	0.7936582	-0.20782053	0.10368809	0.74586597	-0.15846007	0.36149268	1.0165934	-0.007843257	0.32707666	1.1182924	0.12475735	0.32246124	1.1203843	-0.1519212	0.3335723	0.92492249	-0.028069538	0.34122742	0.97709955	-0.1259941	0.33223331	0.48195187	0.079344299	0.31857712	0.50201202	0.21340024	0.27497986	0.64667737	0.1283425	0.25653421	0.099232666	0.10519102	0.19788403	0.088437134	0.1933674	0.26549094	0.30572519	0.21895609	0.15526752	0.044581417	0.14690771
2272	9.14	0.37793146	0.048878746	0.14355644	0.0947911	0.76960632	0.15436203	-0.019143459	0.81947681	0.20187479	-0.1456631	0.84017493	-0.02694697	-0.0049669199	0.79655511	-0.20798752	0.10756815	0.74801678	-0.15839067	0.36607443	1.0187145	-0.0081238794	0.33187067	1.120516	0.12443442	0.32732224	1.1225541	-0.15219615	0.33787473	0.92707349	-0.028248997	0.34566168	0.97921564	-0.12620197	0.33374326	0.48165811	0.07913356	0.32015109	0.5016846	0.21320198	0.27791641	0.64687537	0.12854973	0.25668103	0.099168152	0.10507122	0.19795984	0.088472992	0.19329245	0.26624533	0.30562512	0.21879739	0.15527861	0.044592522	0.14683119
